<svg xmlns="http://www.w3.org/2000/svg" viewBox="15.87 6.75 78.15 98.88">
    <style>
        path {
          fill: #00B2FF;
        }
      </style>
    <path d="M42.18 99.49c-4.02.83-8.35 1.51-9.62 1.51-2.31 0-2.31 0-.98-6.25 5.2-24.38 1.05-54.7-10.67-78.03L15.9 6.75l3.96 3.14C36.8 23.31 50.44 47.8 53.48 70.25c.35 2.61 1.03 4.75 1.51 4.75 1.49 0 15.24-15.72 20.72-23.68C82.96 40.79 85.76 35.2 90.14 22.5c4.36-12.65 4.79-11.3 2.41 7.54-4.23 33.45-16.49 54.96-37.05 65-3.3 1.61-9.29 3.61-13.32 4.45Zm40.32 3.55c-5.66 1.8-9.87 2.28-22 2.54-14.05.29-23.95-.66-25.8-2.49-.44-.44 2.26-1.08 6-1.43 10.68-1 21.43-5.62 30.97-13.3L75.84 85l2.12 3.43c2.52 4.09 8.06 9.12 11.07 10.08 3.01.96 1.58 1.95-6.53 4.53Z"/>
</svg>
